# xmcd
#
# Track frame offsets:
#        150
#        16868
#        44748
#        79163
#
# Disc length: 1524 seconds
#
# Revision: 0
# Processed by: cddbd v1.5.1PL2 Copyright (c) Steve Scherf et al.
# Submitted via: ExactAudioCopy v0.95b2
#
DISCID=2905f204
DTITLE=Joy Kitikonti - Joyenergizer
DYEAR=2002
DGENRE=Electronic
TTITLE0=Joyenergizer (On Air Mix)
TTITLE1=Joyenergizer (Mauro Picotto Mix)
TTITLE2=Joyenergizer (Psico Mix)
TTITLE3=Joyenergizer (Phisical Mix)
EXTD=
EXTT0=
EXTT1=
EXTT2=
EXTT3=
PLAYORDER=
